# xmcd CD database file
#
# Track frame offsets:
#	150
#	16910
#	29285
#	43240
#	59362
#	77372
#	95910
#	107600
#	129370
#	145577
#	158015
#	168132
#	181155
#	193365
#	205820
#	220947
#	234495
#	252907
#	263115
#	276890
#	287755
#	300852
#
# Disc length: 4244 seconds
#
# Revision: 1
# Processed by: cddbd v1.5.2PL0 Copyright (c) Steve Scherf et al.
# Submitted via: CDex 1.70beta2
#
DISCID=2c109216
DTITLE=ChartBreakers - ChartBreakers CGC-535
DYEAR=1900
DGENRE=Country
TTITLE0=Kenny Rogers - Lucille
TTITLE1=Eddy Arnold - Make The World Go Away
TTITLE2=Charley Pride - Never Been So Loved
TTITLE3=George Strait - What's Going On In Your World
TTITLE4=Dolly Parton - Yellow Roses
TTITLE5=Tanya Tucker - I'll Come Back As Another Woman
TTITLE6=Willie Nelson - On The Road Again (Live)
TTITLE7=Willie Nelson and Merle Haggard - Poncho And Lefty
TTITLE8=Eddie Rabbitt - Rocky Mountain Music
TTITLE9=Conway Twitty - Linda On My Mind
TTITLE10=Merle Haggard - Mama Tried
TTITLE11=Johnny Horton - North To Alaska
TTITLE12=Larry Gatlin and The Gatlin Brothers - All The Gold In California
TTITLE13=Larry Gatlin and The Gatlin Brothers - Broken Lady
TTITLE14=Lee Greenwood - Dixie Road
TTITLE15=Hank Williams Jr - I'm For Love
TTITLE16=Willie Nelson - Help Me Make It Through The Night
TTITLE17=Buck Owens - I've Got A Tiger By The Tail
TTITLE18=Tompall Glaser and The Glaser Brothers - Loving Her Was Easier (Than Anything I'll Ever Do Again)
TTITLE19=Kathy Mattea - Burnin' Old Memories
TTITLE20=Janie Fricke - Do Me With Love
TTITLE21=Bellamy Brothers - For All The Wrong Reasons
EXTD=YEAR: 1900
EXTT0=
EXTT1=
EXTT2=
EXTT3=
EXTT4=
EXTT5=
EXTT6=
EXTT7=
EXTT8=
EXTT9=
EXTT10=
EXTT11=
EXTT12=
EXTT13=
EXTT14=
EXTT15=
EXTT16=
EXTT17=
EXTT18=
EXTT19=
EXTT20=
EXTT21=
PLAYORDER=
